# AST/ASF file generated using VICON BodyLanguage
# -----------------------------------------------
:version 1.10
:name VICON
:units
  mass 1.0
  length 0.45
  angle deg
:documentation
   .ast/.asf automatically generated from VICON data using
   VICON BodyBuilder and BodyLanguage model FoxedUp or BRILLIANT.MOD
:root
   order TX TY TZ RX RY RZ
   axis XYZ
   position 0 0 0  
   orientation 0 0 0 
:bonedata
  begin
     id 1 
     name lhipjoint
     direction 0.643272 -0.706573 0.294883 
     length 2.58915 
     axis 0 0 0  XYZ
  end
  begin
     id 2 
     name lfemur
     direction 0.34202 -0.939693 0  
     length 7.06802  
     axis 0 0 20  XYZ
    dof rx ry rz
    limits (-160.0 20.0)
           (-70.0 70.0)
           (-60.0 70.0)
  end
  begin
     id 3 
     name ltibia
     direction 0.34202 -0.939693 0   
     length 7.94147   
     axis 0 0 20   XYZ
    dof rx
    limits (-10.0 170.0)
  end
  begin
     id 4 
     name lfoot
     direction 0.0435058 -0.119531 0.991877   
     length 1.8399   
     axis -90 7.62852e-016 20   XYZ
    dof rx rz
    limits (-45.0 90.0)
           (-70.0 20.0)
  end
  begin
     id 5 
     name ltoes
     direction 1.53505e-011 -4.22157e-011 1   
     length 0.934412   
     axis -90 7.62852e-016 20   XYZ
    dof rx
    limits (-90.0 20.0)
  end
  begin
     id 6 
     name rhipjoint
     direction -0.636801 -0.711547 0.296959   
     length 2.57105  
     axis 0 0 0  XYZ 
  end
  begin
     id 7 
     name rfemur
     direction -0.34202 -0.939693 0   
     length 7.03285   
     axis 0 0 -20   XYZ
    dof rx ry rz
    limits (-160.0 20.0)
           (-70.0 70.0)
           (-70.0 60.0)
  end
  begin
     id 8 
     name rtibia
     direction -0.34202 -0.939693 0   
     length 7.99111   
     axis 0 0 -20   XYZ
    dof rx
    limits (-10.0 170.0)
 end
 begin
     id 9 
     name rfoot
     direction -0.0783088 -0.215152 0.973436   
     length 1.98785  
     axis -90 -7.62852e-016 -20   XYZ
    dof rx rz
    limits (-45.0 90.0)
           (-20.0 70.0)
  end
  begin
     id 10 
     name rtoes
     direction -1.53606e-011 -4.21943e-011 1   
     length 1.001   
     axis -90 -7.62852e-016 -20   XYZ
    dof rx
    limits (-90.0 20.0)
  end
  begin
     id 11 
     name lowerback
     direction 0.00141527 0.998403 -0.0564763   
     length 2.30486   
     axis 0 0 0   XYZ
    dof rx ry rz
    limits (-20.0 45.0)
           (-30.0 30.0)
           (-30.0 30.0)
  end
  begin
     id 12 
     name upperback
     direction 0.0125137 0.999915 0.00361315   
     length 2.30697   
     axis 0 0 0   XYZ
    dof rx ry rz
    limits (-20.0 45.0)
           (-30.0 30.0)
           (-30.0 30.0)
  end
  begin
     id 13 
     name thorax
     direction 0.0136417 0.999471 0.0295116   
     length 2.31005   
     axis 0 0 0   XYZ
    dof rx ry rz
    limits (-20.0 45.0)
           (-30.0 30.0)
           (-30.0 30.0)
  end
  begin
     id 14 
     name lowerneck
     direction 0.0766806 0.997047 0.00422047   
     length 1.68825   
     axis 0 0 0   XYZ
    dof rx ry rz
    limits (-20.0 45.0)
           (-30.0 30.0)
           (-30.0 30.0)
  end
  begin
     id 15 
     name upperneck
     direction -0.143512 0.985106 -0.0947088   
     length 1.69772   
     axis 0 0 0   XYZ
    dof rx ry rz
    limits (-20.0 45.0)
           (-30.0 30.0)
           (-30.0 30.0)
  end
  begin
     id 16
     name head
     direction -0.0539128 0.997849 -0.0372864  
     length 1.71187  
     axis 0 0 0   XYZ
    dof rx ry rz
    limits (-20.0 45.0)
           (-30.0 30.0)
           (-30.0 30.0)
  end
  begin
     id 17 
     name lclavicle
     direction 0.978251 0.207416 -0.00165765  
     length 3.35399  
     axis 0 0 0   XYZ
    dof ry rz
    limits (-20.0 10.0)
           (0.0 20.0)
  end
  begin
     id 18 
     name lhumerus
     direction 1 -4.48966e-011 -1.32191e-028   
     length 5.70706   
     axis 180 -30 -90   XYZ
    dof rx ry rz
    limits (-60.0 90.0)
           (-90.0 90.0)
           (-90.0 90.0)
  end
  begin
     id 19
     name lradius
     direction 1 -4.48976e-011 9.36106e-027   
     length 3.33243   
     axis 180 -30 -90   XYZ
    dof rx
    limits (-10.0 170.0)
  end
  begin
     id 20
     name lwrist
     direction 1 -4.48976e-011 1.1555e-026   
     length 1.66621   
     axis -5.7412e-015 90 90   XYZ
    dof ry
    limits (-180.0 0.0)
 end
  begin
     id 21 
     name lhand
     direction 1 -4.48939e-011 2.31113e-026   
     length 0.792687   
     axis -1.47463e-014 90 90   XYZ
    dof rx rz
    limits (-90.0 90.0)
           (-45.0 45.0)
  end
  begin
     id 22 
     name lfingers
     direction 1 -4.48866e-011 4.62274e-026   
     length 0.639085   
     axis -2.94925e-014 90 90   XYZ
    dof rx
    limits (0.0 90.0)
  end
  begin
     id 23
     name lthumb
     direction 0.707107 -6.34847e-011 0.707107   
     length 0.917601   
     axis -90 45 -6.68868e-015   XYZ
    dof rx rz
    limits (-45.0 45.0)
           (-45.0 45.0)
  end
  begin
     id 24 
     name rclavicle
     direction -0.981813 0.185514 0.0403428   
     length 3.47271  
     axis 0 0 0   XYZ 
    dof ry rz
    limits (-10.0 20.0)
           (-20.0 0.0)
  end
  begin
     id 25 
     name rhumerus
     direction -1 -4.48972e-011 -6.58544e-029  
     length 5.88176   
     axis 180 30 90   XYZ
    dof rx ry rz
    limits (-90.0 60.0)
           (-90.0 90.0)
           (-90.0 90.0)
  end
  begin
     id 26 
     name rradius
     direction -1 -4.48964e-011 8.36306e-027   
     length 3.28156   
     axis 180 30 90   XYZ
    dof rx
    limits (-10.0 170.0)
  end
  begin
     id 27 
     name rwrist
     direction -1 -4.48903e-011 1.15562e-026   
     length 1.64078   
     axis -5.7412e-015 -90 -90   XYZ
    dof ry
    limits (-180.0 0.0)
  end
  begin
     id 28
     name rhand
     direction -1 -4.49055e-011 2.31074e-026   
     length 0.863125   
     axis -1.47463e-014 -90 -90   XYZ
    dof rx rz
    limits (-90.0 90.0)
           (-45.0 45.0)
  end
  begin
     id 29
     name rfingers
     direction -1 -4.48994e-011 4.62188e-026   
     length 0.695873   
     axis -2.94925e-014 -90 -90   XYZ
    dof rx
    limits (0.0 90.0)
  end
  begin
     id 30
     name rthumb
     direction -0.707107 -6.35058e-011 0.707107   
     length 0.999139   
     axis -90 -45 6.68868e-015   XYZ
    dof rx rz
    limits (-45.0 45.0)
           (-45.0 45.0)
  end
:hierarchy
  begin
    root lhipjoint rhipjoint lowerback
    lhipjoint lfemur
    lfemur ltibia
    ltibia lfoot
    lfoot ltoes
    rhipjoint rfemur
    rfemur rtibia
    rtibia rfoot
    rfoot rtoes
    lowerback upperback
    upperback thorax
    thorax lowerneck lclavicle rclavicle
    lowerneck upperneck
    upperneck head
    lclavicle lhumerus
    lhumerus lradius
    lradius lwrist
    lwrist lhand lthumb
    lhand lfingers
    rclavicle rhumerus
    rhumerus rradius
    rradius rwrist
    rwrist rhand rthumb
    rhand rfingers
  end

#!OML:ASF \\Waltz\H\Terrain\Patient Classification 1\Animal2\Wednesday\Animal2.ASF
:FULLY-SPECIFIED
:DEGREES
614
root 1.58022 17.2142 -13.6009 -0.845396 -5.03355 8.08166
lowerback 6.40278 0.781421 0.787906
upperback -3.16108 0.774407 -5.35426
thorax -6.84218 0.20584 -6.2054
lowerneck 7.07506 4.73808 14.1989
upperneck -10.2118 6.19415 -18.0953
head -3.07008 3.49633 -8.28351
rclavicle 3.20292e-014 -9.70069e-014
rhumerus 8.98817 39.2556 -74.7239
rradius 89.1718
rwrist -31.926
rhand -39.5488 8.26107
rfingers 7.12502
rthumb -12.5328 -21.3431
lclavicle 3.20292e-014 -9.70069e-014
lhumerus 21.5019 4.07251 -0.662947
lradius 73.8402
lwrist -2.18899
lhand -49.3976 12.8517
lfingers 7.12502
lthumb -22.0109 41.6192
rfemur -16.9825 12.1343 15.0104
rtibia 50.1705
rfoot -28.8438 -10.9827
rtoes 26.6467
lfemur -17.4705 8.85991 -31.0118
ltibia 38.1329
lfoot -18.7008 -5.77441
ltoes -20.6246
615
root 1.58523 17.1812 -13.5813 -0.887197 -4.74257 8.42439
lowerback 6.65341 0.749458 0.482351
upperback -3.21709 0.684616 -5.49574
thorax -7.05972 0.165967 -6.1829
lowerneck 7.47798 4.73248 14.0635
upperneck -10.5577 6.20714 -17.8137
head -3.25456 3.51119 -8.19699
rclavicle -4.77083e-015 -1.31198e-014
rhumerus 8.91018 39.0924 -74.819
rradius 89.5396
rwrist -32.2793
rhand -39.8722 7.89711
rfingers 7.12502
rthumb -12.8446 -21.6877
lclavicle -4.77083e-015 -1.31198e-014
lhumerus 21.3937 3.78751 -1.05816
lradius 73.7458
lwrist -2.79942
lhand -49.368 10.6521
lfingers 7.12502
lthumb -21.9824 39.423
rfemur -17.8226 12.0724 14.6227
rtibia 51.8997
rfoot -28.2244 -11.2443
rtoes 24.8305
lfemur -17.3258 9.16683 -31.3522
ltibia 38.1068
lfoot -18.7286 -6.87207
ltoes -17.9353
616
root 1.5913 17.1558 -13.5619 -0.929728 -4.42355 8.83034
lowerback 6.98763 0.683471 0.0961177
upperback -3.37306 0.5317 -5.62446
thorax -7.44076 0.0949818 -6.09888
lowerneck 7.58967 4.64472 14.2389
upperneck -10.2392 6.14688 -17.879
head -3.18312 3.4811 -8.24086
rclavicle 2.24875e-014 -4.29375e-014
rhumerus 8.58798 39.033 -75.0966
rradius 90.0849
rwrist -32.7354
rhand -39.8226 6.74335
rfingers 7.12502
rthumb -12.7967 -22.8444
lclavicle 2.24875e-014 -4.29375e-014
lhumerus 21.2108 3.37524 -1.41642
lradius 73.6654
lwrist -3.33124
lhand -48.9953 8.14424
lfingers 7.12502
lthumb -21.6245 36.9568
rfemur -18.6716 12.131 14.078
rtibia 53.6064
rfoot -27.9154 -10.5889
rtoes 25.2638
lfemur -17.2421 9.45121 -31.7876
ltibia 38.168
lfoot -18.8955 -7.44587
ltoes -18.2371
617
root 1.59579 17.1239 -13.5407 -1.03942 -4.07687 9.30553
lowerback 7.19776 0.618903 -0.344903
upperback -3.36871 0.381418 -5.77615
thorax -7.577 0.0357699 -5.99727
lowerneck 7.81969 4.56025 14.2613
upperneck -10.3189 6.05553 -17.8455
head -3.26224 3.44281 -8.24582
rclavicle 7.70291e-015 -1.59028e-014
rhumerus 8.43386 38.8419 -75.2313
rradius 90.5359
rwrist -33.1336
rhand -39.7007 6.14202
rfingers 7.12502
rthumb -12.6792 -23.4531
lclavicle 7.70291e-015 -1.59028e-014
lhumerus 21.1773 3.21107 -1.6329
lradius 73.4879
lwrist -4.03364
lhand -48.3711 5.56712
lfingers 7.12502
lthumb -21.025 34.4474
rfemur -19.3322 12.3204 13.4325
rtibia 55.2969
rfoot -28.0831 -9.3315
rtoes 27.4343
lfemur -17.1721 9.65519 -32.2908
ltibia 38.29
lfoot -18.9613 -8.13627
ltoes -17.2991
618
root 1.59612 17.0889 -13.5222 -1.13031 -3.67923 9.7817
lowerback 7.23972 0.516995 -0.800219
upperback -3.19513 0.192962 -5.93811
thorax -7.43591 -0.0346869 -5.88085
lowerneck 7.87201 4.51756 14.1203
upperneck -10.6424 5.97119 -17.6492
head -3.39229 3.39928 -8.17043
rclavicle 2.5842e-015 2.22639e-014
rhumerus 8.68501 38.5977 -75.171
rradius 90.8489
rwrist -33.5686
rhand -39.7045 6.44085
rfingers 7.12502
rthumb -12.683 -23.154
lclavicle 2.5842e-015 2.22639e-014
lhumerus 21.1128 3.41809 -1.77132
lradius 73.2843
lwrist -5.03959
lhand -48.001 2.86692
lfingers 7.12502
lthumb -20.6694 31.7863
rfemur -19.9859 12.3853 12.771
rtibia 56.9325
rfoot -28.0762 -8.55724
rtoes 27.7537
lfemur -17.124 9.64243 -32.7856
ltibia 38.397
lfoot -19.0553 -8.65544
ltoes -16.3476
619
root 1.59763 17.0617 -13.5084 -1.18149 -3.31224 10.1287
lowerback 7.28997 0.441038 -1.11195
upperback -3.03191 0.0551239 -6.08934
thorax -7.30457 -0.0880352 -5.84287
lowerneck 7.64924 4.43926 14.1432
upperneck -10.6599 5.84945 -17.5356
head -3.38307 3.32343 -8.12717
rclavicle 8.00108e-015 -8.34896e-015
rhumerus 8.87503 38.2109 -75.199
rradius 91.0878
rwrist -33.4
rhand -39.6696 6.97282
rfingers 7.12502
rthumb -12.6493 -22.6241
lclavicle 8.00108e-015 -8.34896e-015
lhumerus 21.0099 3.69943 -1.88155
lradius 73.1387
lwrist -6.19625
lhand -48.3098 0.743831
lfingers 7.12502
lthumb -20.9661 29.6307
rfemur -20.7095 12.4139 12.1939
rtibia 58.4827
rfoot -27.7845 -7.97297
rtoes 27.0996
lfemur -17.0663 9.54893 -33.138
ltibia 38.4921
lfoot -19.179 -9.13163
ltoes -15.2543
620
root 1.60004 17.0347 -13.4903 -1.16615 -3.01504 10.3845
lowerback 7.30256 0.430653 -1.29164
upperback -2.95701 0.0143594 -6.26983
thorax -7.23724 -0.102937 -5.92801
lowerneck 7.65517 4.30653 14.2825
upperneck -10.7209 5.69828 -17.3362
head -3.43074 3.2329 -8.08612
rclavicle -1.46852e-014 -1.27222e-014
rhumerus 8.68749 37.7673 -75.5107
rradius 91.528
rwrist -33.2063
rhand -39.7298 6.94596
rfingers 7.12502
rthumb -12.7073 -22.6474
lclavicle -1.46852e-014 -1.27222e-014
lhumerus 21.0727 3.84047 -1.96334
lradius 73.0331
lwrist -7.55014
lhand -48.7357 -0.835998
lfingers 7.12502
lthumb -21.3752 28.005
rfemur -21.4803 12.6354 11.6624
rtibia 59.9423
rfoot -27.5319 -7.09014
rtoes 28.2692
lfemur -17.026 9.40743 -33.392
ltibia 38.6538
lfoot -19.5508 -9.51129
ltoes -14.2034
